<?xml version="1.0" standalone="no"?><!DOCTYPE svg PUBLIC "-//W3C//DTD SVG 1.1//EN" "http://www.w3.org/Graphics/SVG/1.1/DTD/svg11.dtd"><svg t="1514469428792" class="icon" style="" viewBox="0 0 1024 1024" version="1.1" xmlns="http://www.w3.org/2000/svg" p-id="1711" xmlns:xlink="http://www.w3.org/1999/xlink" width="200" height="200"><defs><style type="text/css"></style></defs><path d="M1024.0245 282.173c0 17.633-6.165 32.615-18.499 44.924L527.2005 805.448l-89.846 89.846c-12.357 12.331-27.315 18.498-44.946 18.498-17.609 0-32.591-6.167-44.923-18.498l-89.847-89.846L18.4755 566.284c-12.334-12.332-18.5-27.314-18.5-44.947 0-17.608 6.166-32.59 18.5-44.923l89.845-89.846c12.333-12.332 27.316-18.499 44.924-18.499 17.607 0 32.589 6.167 44.922 18.499l194.241 194.891 433.429-434.053c12.308-12.333 27.29-18.5 44.922-18.5 17.608 0 32.59 6.166 44.923 18.5l89.844 89.845C1017.8595 249.583 1024.0245 264.565 1024.0245 282.173z" p-id="1712" fill="#09BB07"></path></svg>